<svg height="448pt" viewBox="0 0 448 448" width="448pt" xmlns="http://www.w3.org/2000/svg"><path d="m286.144531 173.167969-25.992187 26.03125c2.503906 5.25 3.816406 10.984375 3.847656 16.800781-.027344 22.082031-17.917969 39.972656-40 40-5.828125-.023438-11.578125-1.339844-16.839844-3.847656l-20.113281 20.113281c11.703125 4.945313 24.25 7.570313 36.953125 7.734375 51.769531 0 96.609375-48.390625 109.71875-64-13.796875-16.414062-29.808594-30.828125-47.574219-42.832031zm0 0" style="fill: rgb(80, 155, 247);"/><path d="m224 0c-123.710938 0-224 100.289062-224 224s100.289062 224 224 224 224-100.289062 224-224c-.140625-123.652344-100.347656-223.859375-224-224zm126.398438 220.800781c-2.285157 3.070313-56.917969 75.199219-126.398438 75.199219-17.027344-.238281-33.800781-4.171875-49.160156-11.527344l-41.183594 41.183594c-3.140625 3.03125-8.128906 2.988281-11.214844-.097656-3.085937-3.085938-3.128906-8.074219-.097656-11.214844l37.726562-37.734375c-23.957031-14.765625-45.109374-33.660156-62.46875-55.808594-2.136718-2.84375-2.136718-6.757812 0-9.601562 2.285157-3.070313 56.917969-75.199219 126.398438-75.199219 21.039062.464844 41.617188 6.28125 59.785156 16.902344l30.558594-30.558594c3.140625-3.03125 8.128906-2.988281 11.214844.097656 3.085937 3.085938 3.128906 8.074219.097656 11.214844l-27.9375 27.945312c19.945312 13.800782 37.703125 30.523438 52.679688 49.597657 2.136718 2.84375 2.136718 6.757812 0 9.601562zm0 0" style="fill: rgb(80, 155, 247);"/><path d="m200 216c.023438 5.542969 1.980469 10.902344 5.535156 15.152344l33.601563-33.601563c-4.246094-3.554687-9.597657-5.519531-15.136719-5.550781-13.253906 0-24 10.746094-24 24zm0 0" style="fill: rgb(80, 155, 247);"/><path d="m248 216c-.015625-1.429688-.160156-2.851562-.433594-4.257812l-27.824218 27.824218c7.003906 1.359375 14.246093-.507812 19.722656-5.074218 5.480468-4.570313 8.613281-11.359376 8.535156-18.492188zm0 0" style="fill: rgb(80, 155, 247);"/><path d="m184 216c-.078125-15.761719 9.152344-30.082031 23.535156-36.523438 14.382813-6.445312 31.210938-3.796874 42.921875 6.753907l21.398438-21.429688c-14.699219-8.03125-31.109375-12.417969-47.855469-12.800781-51.769531 0-96.609375 48.390625-109.71875 64 16.261719 19.445312 35.722656 35.96875 57.550781 48.855469l22.398438-22.398438c-6.550781-7.257812-10.195313-16.679687-10.230469-26.457031zm0 0" style="fill: rgb(80, 155, 247);"/></svg>